# xmcd CD database file
#
# Track frame offsets:
#	150
#	18975
#	37950
#	54550
#
# Disc length: 974 seconds
#
# Revision: 5
# Processed by: cddbd v1.5.2PL0 Copyright (c) Steve Scherf et al.
# Submitted via: CDex 1.93
#
DISCID=2703cc04
DTITLE=Sommersault und Xavier Naidoo - Way To Mars
DYEAR=2001
DGENRE=Soul
TTITLE0=Way To Mars
TTITLE1=Way To Mars (Acoustic Version)
TTITLE2=Way To Mars (Buzz Aldrin Mix)
TTITLE3=Way To Mars (Instrumental)
EXTD=YEAR: 2001
EXTT0=
EXTT1=
EXTT2=
EXTT3=
PLAYORDER=
